<svg xmlns="http://www.w3.org/2000/svg" xmlns:xlink="http://www.w3.org/1999/xlink" width="500" zoomAndPan="magnify" viewBox="0 0 375 374.999991" height="500" preserveAspectRatio="xMidYMid meet" version="1.0"><defs><g/><clipPath id="34404f612b"><path d="M 270.820312 113.628906 L 310.441406 113.628906 L 310.441406 153.246094 L 270.820312 153.246094 Z M 270.820312 113.628906 " clip-rule="nonzero"/></clipPath><clipPath id="342a2562c4"><path d="M 290.628906 113.628906 C 279.6875 113.628906 270.820312 122.496094 270.820312 133.4375 C 270.820312 144.378906 279.6875 153.246094 290.628906 153.246094 C 301.570312 153.246094 310.441406 144.378906 310.441406 133.4375 C 310.441406 122.496094 301.570312 113.628906 290.628906 113.628906 Z M 290.628906 113.628906 " clip-rule="nonzero"/></clipPath><clipPath id="7a117577db"><path d="M 302 134 L 330 134 L 330 163 L 302 163 Z M 302 134 " clip-rule="nonzero"/></clipPath><clipPath id="9da8bcef9d"><path d="M 296.726562 144.65625 L 320.070312 129.449219 L 335.277344 152.792969 L 311.933594 168 Z M 296.726562 144.65625 " clip-rule="nonzero"/></clipPath><clipPath id="738f74de80"><path d="M 308.398438 137.054688 C 301.953125 141.253906 300.132812 149.882812 304.332031 156.328125 C 308.53125 162.773438 317.160156 164.59375 323.605469 160.394531 C 330.050781 156.195312 331.871094 147.566406 327.671875 141.121094 C 323.472656 134.675781 314.84375 132.855469 308.398438 137.054688 Z M 308.398438 137.054688 " clip-rule="nonzero"/></clipPath><clipPath id="866a4a6e63"><path d="M 108.636719 77.996094 L 181.621094 77.996094 L 181.621094 133.4375 L 108.636719 133.4375 Z M 108.636719 77.996094 " clip-rule="nonzero"/></clipPath><clipPath id="8d1468ce14"><path d="M 145.027344 77.996094 C 124.929688 77.996094 108.636719 90.40625 108.636719 105.714844 C 108.636719 121.027344 124.929688 133.4375 145.027344 133.4375 C 165.128906 133.4375 181.421875 121.027344 181.421875 105.714844 C 181.421875 90.40625 165.128906 77.996094 145.027344 77.996094 Z M 145.027344 77.996094 " clip-rule="nonzero"/></clipPath><clipPath id="5f34826541"><path d="M 108.636719 94.703125 L 146 94.703125 L 146 132.222656 L 108.636719 132.222656 Z M 108.636719 94.703125 " clip-rule="nonzero"/></clipPath><clipPath id="b034dd2b1e"><path d="M 335.277344 214 L 354 214 L 354 234 L 335.277344 234 Z M 335.277344 214 " clip-rule="nonzero"/></clipPath></defs><g fill="#00bfaa" fill-opacity="1"><g transform="translate(5.125017, 231.717475)"><g><path d="M 1.90625 -98.40625 L 1.90625 -127.34375 C 1.90625 -130.257812 2.789062 -132.601562 4.5625 -134.375 C 6.34375 -136.15625 8.691406 -137.046875 11.609375 -137.046875 L 97.453125 -137.046875 C 100.367188 -137.046875 102.710938 -136.15625 104.484375 -134.375 C 106.265625 -132.601562 107.15625 -130.257812 107.15625 -127.34375 L 107.15625 -98.40625 C 107.15625 -96.945312 106.648438 -95.769531 105.640625 -94.875 C 104.628906 -93.988281 103.425781 -93.546875 102.03125 -93.546875 C 100.0625 -93.546875 98.234375 -93.925781 96.546875 -94.6875 C 94.867188 -95.457031 93.203125 -96.425781 91.546875 -97.59375 C 89.898438 -98.769531 88.203125 -99.925781 86.453125 -101.0625 C 84.710938 -102.207031 82.78125 -103.160156 80.65625 -103.921875 C 78.53125 -104.679688 76.132812 -105.0625 73.46875 -105.0625 L 72.046875 -105.0625 L 72.046875 -68.53125 C 72.046875 -61.738281 72.25 -55.882812 72.65625 -50.96875 C 73.070312 -46.050781 73.613281 -41.8125 74.28125 -38.25 C 74.945312 -34.695312 75.644531 -31.617188 76.375 -29.015625 C 77.101562 -26.421875 77.800781 -24.078125 78.46875 -21.984375 C 79.132812 -19.890625 79.671875 -17.796875 80.078125 -15.703125 C 80.492188 -13.609375 80.703125 -11.257812 80.703125 -8.65625 C 80.703125 -6.3125 80.144531 -4.535156 79.03125 -3.328125 C 77.925781 -2.117188 76.5625 -1.273438 74.9375 -0.796875 C 73.320312 -0.328125 71.722656 -0.078125 70.140625 -0.046875 C 68.554688 -0.015625 67.253906 0 66.234375 0 L 41.6875 0 C 40.664062 0 39.363281 -0.015625 37.78125 -0.046875 C 36.195312 -0.078125 34.59375 -0.328125 32.96875 -0.796875 C 31.351562 -1.273438 29.988281 -2.117188 28.875 -3.328125 C 27.769531 -4.535156 27.21875 -6.3125 27.21875 -8.65625 C 27.21875 -11.257812 27.421875 -13.609375 27.828125 -15.703125 C 28.242188 -17.796875 28.785156 -19.890625 29.453125 -21.984375 C 30.117188 -24.078125 30.816406 -26.421875 31.546875 -29.015625 C 32.273438 -31.617188 32.972656 -34.695312 33.640625 -38.25 C 34.304688 -41.8125 34.84375 -46.050781 35.25 -50.96875 C 35.664062 -55.882812 35.875 -61.738281 35.875 -68.53125 L 35.875 -105.0625 L 35.59375 -105.0625 C 32.925781 -105.0625 30.53125 -104.679688 28.40625 -103.921875 C 26.28125 -103.160156 24.34375 -102.207031 22.59375 -101.0625 C 20.851562 -99.925781 19.15625 -98.769531 17.5 -97.59375 C 15.851562 -96.425781 14.191406 -95.457031 12.515625 -94.6875 C 10.835938 -93.925781 9.015625 -93.546875 7.046875 -93.546875 C 5.648438 -93.546875 4.441406 -93.988281 3.421875 -94.875 C 2.410156 -95.769531 1.90625 -96.945312 1.90625 -98.40625 Z M 1.90625 -98.40625 "/></g></g></g><g fill="#00bfaa" fill-opacity="1"><g transform="translate(114.188823, 231.717475)"><g><path d="M 2.375 -47.59375 C 2.375 -54.1875 3.117188 -59.988281 4.609375 -65 C 6.109375 -70.007812 8.125 -74.320312 10.65625 -77.9375 C 13.195312 -81.5625 16.019531 -84.5625 19.125 -86.9375 C 22.238281 -89.320312 25.441406 -91.226562 28.734375 -92.65625 C 32.035156 -94.082031 35.207031 -95.09375 38.25 -95.6875 C 41.300781 -96.289062 43.96875 -96.59375 46.25 -96.59375 C 50.375 -96.65625 53.65625 -96.5625 56.09375 -96.3125 C 58.539062 -96.0625 60.570312 -95.804688 62.1875 -95.546875 C 63.8125 -95.296875 65.414062 -95.171875 67 -95.171875 C 70.300781 -95.171875 72.96875 -95.296875 75 -95.546875 C 77.03125 -95.804688 78.789062 -96.046875 80.28125 -96.265625 C 81.769531 -96.484375 83.242188 -96.59375 84.703125 -96.59375 C 85.710938 -96.59375 86.898438 -96.46875 88.265625 -96.21875 C 89.628906 -95.96875 90.976562 -95.457031 92.3125 -94.6875 C 93.644531 -93.925781 94.753906 -92.847656 95.640625 -91.453125 C 96.535156 -90.054688 96.984375 -88.21875 96.984375 -85.9375 C 96.984375 -83.71875 96.648438 -81.398438 95.984375 -78.984375 C 95.316406 -76.578125 94.566406 -73.914062 93.734375 -71 C 92.910156 -68.082031 92.164062 -64.71875 91.5 -60.90625 C 90.84375 -57.101562 90.515625 -52.664062 90.515625 -47.59375 C 90.515625 -43.207031 90.75 -39.472656 91.21875 -36.390625 C 91.695312 -33.316406 92.300781 -30.65625 93.03125 -28.40625 C 93.757812 -26.15625 94.488281 -24.1875 95.21875 -22.5 C 95.945312 -20.820312 96.546875 -19.222656 97.015625 -17.703125 C 97.492188 -16.179688 97.734375 -14.5625 97.734375 -12.84375 C 97.734375 -10.050781 96.65625 -7.578125 94.5 -5.421875 C 92.34375 -3.265625 89.457031 -1.582031 85.84375 -0.375 C 82.226562 0.820312 78.164062 1.421875 73.65625 1.421875 C 71.695312 1.421875 70.175781 1.132812 69.09375 0.5625 C 68.019531 0 67.148438 -0.644531 66.484375 -1.375 C 65.816406 -2.101562 65.097656 -2.753906 64.328125 -3.328125 C 63.566406 -3.898438 62.554688 -4.1875 61.296875 -4.1875 C 59.898438 -4.1875 58.660156 -3.898438 57.578125 -3.328125 C 56.503906 -2.753906 55.285156 -2.101562 53.921875 -1.375 C 52.554688 -0.644531 50.859375 0 48.828125 0.5625 C 46.796875 1.132812 44.128906 1.421875 40.828125 1.421875 C 35.554688 1.421875 30.585938 0.25 25.921875 -2.09375 C 21.265625 -4.4375 17.175781 -7.765625 13.65625 -12.078125 C 10.132812 -16.398438 7.375 -21.570312 5.375 -27.59375 C 3.375 -33.625 2.375 -40.289062 2.375 -47.59375 Z M 47.015625 -71.46875 C 44.472656 -71.46875 42.425781 -69.28125 40.875 -64.90625 C 39.320312 -60.53125 38.546875 -54.757812 38.546875 -47.59375 C 38.546875 -40.476562 39.320312 -34.734375 40.875 -30.359375 C 42.425781 -25.984375 44.472656 -23.796875 47.015625 -23.796875 C 49.554688 -23.796875 51.601562 -25.984375 53.15625 -30.359375 C 54.707031 -34.734375 55.484375 -40.476562 55.484375 -47.59375 C 55.484375 -54.757812 54.707031 -60.53125 53.15625 -64.90625 C 51.601562 -69.28125 49.554688 -71.46875 47.015625 -71.46875 Z M 47.015625 -71.46875 "/></g></g></g><g fill="#00bfaa" fill-opacity="1"><g transform="translate(212.784027, 231.717475)"><g><path d="M 0.953125 -81.75 C 0.953125 -83.96875 1.835938 -85.695312 3.609375 -86.9375 C 5.390625 -88.175781 7.644531 -89.191406 10.375 -89.984375 C 13.101562 -90.773438 15.894531 -91.550781 18.75 -92.3125 C 19.894531 -92.632812 21.335938 -93.03125 23.078125 -93.5 C 24.828125 -93.976562 26.601562 -94.453125 28.40625 -94.921875 C 30.21875 -95.398438 31.835938 -95.796875 33.265625 -96.109375 C 34.691406 -96.429688 35.722656 -96.59375 36.359375 -96.59375 C 38.128906 -96.59375 39.820312 -95.910156 41.4375 -94.546875 C 43.0625 -93.179688 44.378906 -90.660156 45.390625 -86.984375 C 45.523438 -86.472656 45.734375 -86.0625 46.015625 -85.75 C 46.296875 -85.4375 46.753906 -85.28125 47.390625 -85.28125 C 47.960938 -85.28125 49.007812 -85.847656 50.53125 -86.984375 C 52.0625 -88.128906 54.03125 -89.445312 56.4375 -90.9375 C 58.84375 -92.425781 61.695312 -93.738281 65 -94.875 C 68.300781 -96.019531 72.046875 -96.59375 76.234375 -96.59375 C 82.003906 -96.59375 86.664062 -95.304688 90.21875 -92.734375 C 93.769531 -90.171875 96.382812 -86.632812 98.0625 -82.125 C 99.75 -77.625 100.59375 -72.457031 100.59375 -66.625 L 100.59375 -47.59375 C 100.59375 -43.207031 101.019531 -39.175781 101.875 -35.5 C 102.738281 -31.820312 103.753906 -28.410156 104.921875 -25.265625 C 106.097656 -22.128906 107.113281 -19.179688 107.96875 -16.421875 C 108.820312 -13.660156 109.25 -11.007812 109.25 -8.46875 C 109.25 -6.1875 108.691406 -4.457031 107.578125 -3.28125 C 106.472656 -2.101562 105.113281 -1.273438 103.5 -0.796875 C 101.882812 -0.328125 100.28125 -0.078125 98.6875 -0.046875 C 97.101562 -0.015625 95.804688 0 94.796875 0 L 77 0 C 76.164062 0 75.035156 0 73.609375 0 C 72.179688 0 70.644531 -0.109375 69 -0.328125 C 67.351562 -0.554688 65.765625 -0.953125 64.234375 -1.515625 C 62.710938 -2.085938 61.476562 -2.925781 60.53125 -4.03125 C 59.582031 -5.144531 59.109375 -6.625 59.109375 -8.46875 C 59.109375 -12.71875 59.566406 -16.984375 60.484375 -21.265625 C 61.398438 -25.546875 62.316406 -29.875 63.234375 -34.25 C 64.160156 -38.632812 64.5625 -43.082031 64.4375 -47.59375 C 64.375 -49.550781 64.210938 -51.625 63.953125 -53.8125 C 63.703125 -56.007812 63.257812 -58.070312 62.625 -60 C 61.988281 -61.9375 61.066406 -63.523438 59.859375 -64.765625 C 58.660156 -66.003906 57.109375 -66.625 55.203125 -66.625 C 53.171875 -66.625 51.550781 -66.003906 50.34375 -64.765625 C 49.132812 -63.523438 48.242188 -61.9375 47.671875 -60 C 47.109375 -58.070312 46.742188 -55.992188 46.578125 -53.765625 C 46.421875 -51.546875 46.34375 -49.488281 46.34375 -47.59375 C 46.34375 -43.90625 46.785156 -40.285156 47.671875 -36.734375 C 48.566406 -33.179688 49.582031 -29.753906 50.71875 -26.453125 C 51.863281 -23.160156 52.878906 -20.003906 53.765625 -16.984375 C 54.660156 -13.972656 55.109375 -11.132812 55.109375 -8.46875 C 55.109375 -6.625 54.628906 -5.144531 53.671875 -4.03125 C 52.722656 -2.925781 51.488281 -2.085938 49.96875 -1.515625 C 48.445312 -0.953125 46.859375 -0.554688 45.203125 -0.328125 C 43.554688 -0.109375 42.019531 0 40.59375 0 C 39.164062 0 38.039062 0 37.21875 0 L 16.078125 0 C 15.066406 0 13.765625 -0.015625 12.171875 -0.046875 C 10.585938 -0.078125 8.988281 -0.328125 7.375 -0.796875 C 5.757812 -1.273438 4.394531 -2.101562 3.28125 -3.28125 C 2.175781 -4.457031 1.625 -6.1875 1.625 -8.46875 C 1.625 -11.007812 2.050781 -13.660156 2.90625 -16.421875 C 3.757812 -19.179688 4.769531 -22.128906 5.9375 -25.265625 C 7.113281 -28.410156 8.128906 -31.820312 8.984375 -35.5 C 9.847656 -39.175781 10.28125 -43.207031 10.28125 -47.59375 C 10.28125 -51.78125 9.960938 -55.332031 9.328125 -58.25 C 8.691406 -61.164062 7.910156 -63.671875 6.984375 -65.765625 C 6.066406 -67.859375 5.148438 -69.726562 4.234375 -71.375 C 3.316406 -73.03125 2.539062 -74.664062 1.90625 -76.28125 C 1.269531 -77.894531 0.953125 -79.71875 0.953125 -81.75 Z M 0.953125 -81.75 "/></g></g></g><g clip-path="url(#34404f612b)"><g clip-path="url(#342a2562c4)"><path fill="#ffffff" d="M 270.820312 113.628906 L 310.441406 113.628906 L 310.441406 153.246094 L 270.820312 153.246094 Z M 270.820312 113.628906 " fill-opacity="1" fill-rule="nonzero"/></g></g><g clip-path="url(#7a117577db)"><g clip-path="url(#9da8bcef9d)"><g clip-path="url(#738f74de80)"><path fill="#ffffff" d="M 296.726562 144.65625 L 320.070312 129.449219 L 335.277344 152.792969 L 311.933594 168 Z M 296.726562 144.65625 " fill-opacity="1" fill-rule="nonzero"/></g></g></g><g clip-path="url(#866a4a6e63)"><g clip-path="url(#8d1468ce14)"><path fill="#ffffff" d="M 108.636719 77.996094 L 181.40625 77.996094 L 181.40625 133.4375 L 108.636719 133.4375 Z M 108.636719 77.996094 " fill-opacity="1" fill-rule="nonzero"/></g></g><g clip-path="url(#5f34826541)"><path fill="#f27141" d="M 145.421875 117.734375 C 145.488281 117.425781 145.550781 117.105469 145.59375 116.785156 C 145.46875 116.792969 145.351562 116.804688 145.230469 116.804688 C 142.570312 116.804688 140.40625 114.640625 140.40625 111.972656 C 140.40625 111.785156 140.417969 111.589844 140.441406 111.410156 C 137.398438 111.144531 135.015625 108.589844 135.015625 105.46875 C 135.015625 104.550781 135.21875 103.6875 135.589844 102.917969 C 133.914062 102.167969 132.738281 100.476562 132.738281 98.519531 C 132.738281 97.746094 132.914062 97.015625 133.246094 96.375 C 132.605469 96.15625 131.953125 95.96875 131.285156 95.824219 C 131.292969 95.789062 131.292969 95.757812 131.292969 95.726562 C 131.304688 95.40625 131.09375 95.128906 130.785156 95.066406 C 129.65625 94.835938 128.492188 94.71875 127.222656 94.71875 C 124.066406 94.71875 120.933594 95.5 118.164062 96.980469 C 117.882812 97.136719 117.753906 97.46875 117.863281 97.769531 C 117.878906 97.800781 117.890625 97.835938 117.902344 97.867188 C 112.359375 101.070312 108.636719 107.070312 108.636719 113.945312 C 108.636719 124.214844 116.953125 132.53125 127.222656 132.53125 C 136.199219 132.53125 143.671875 126.179688 145.421875 117.734375 Z M 145.421875 117.734375 " fill-opacity="1" fill-rule="nonzero"/></g><g clip-path="url(#b034dd2b1e)"><path fill="#f27141" d="M 335.277344 228.449219 C 335.277344 228.449219 337.253906 238.089844 351.746094 230.753906 C 351.746094 230.753906 358.042969 226.121094 349.566406 219.988281 C 349.566406 219.988281 338.292969 203.921875 335.277344 228.449219 Z M 335.277344 228.449219 " fill-opacity="1" fill-rule="nonzero"/></g><path fill="#f27141" d="M 362.578125 223.867188 C 362.578125 223.867188 363.542969 228.582031 370.648438 224.992188 C 370.648438 224.992188 373.734375 222.71875 369.585938 219.710938 C 369.585938 219.710938 364.058594 211.84375 362.578125 223.867188 Z M 362.578125 223.867188 " fill-opacity="1" fill-rule="nonzero"/><path fill="#f27141" d="M 358.738281 240.171875 C 358.738281 240.171875 342.523438 245.441406 350.316406 251.15625 C 358.097656 256.859375 362.015625 258.875 362.015625 258.875 C 362.015625 258.875 374.996094 240.808594 366.863281 240.492188 C 358.738281 240.171875 358.738281 240.171875 358.738281 240.171875 Z M 358.738281 240.171875 " fill-opacity="1" fill-rule="nonzero"/><g fill="#000000" fill-opacity="1"><g transform="translate(93.893845, 277.381121)"><g><path d="M 18.734375 -13.84375 L 15.3125 -1.109375 C 15.164062 -0.671875 14.988281 -0.335938 14.78125 -0.109375 C 14.570312 0.117188 14.25 0.234375 13.8125 0.234375 C 13.5 0.234375 13.21875 0.144531 12.96875 -0.03125 C 12.71875 -0.207031 12.546875 -0.457031 12.453125 -0.78125 L 9.765625 -11.234375 L 7.125 -0.78125 C 6.914062 -0.101562 6.445312 0.234375 5.71875 0.234375 C 5.320312 0.234375 5.003906 0.117188 4.765625 -0.109375 C 4.523438 -0.347656 4.347656 -0.679688 4.234375 -1.109375 L 0.78125 -13.9375 C 0.757812 -13.976562 0.75 -14.035156 0.75 -14.109375 C 0.75 -14.390625 0.859375 -14.644531 1.078125 -14.875 C 1.304688 -15.101562 1.582031 -15.21875 1.90625 -15.21875 C 2.144531 -15.21875 2.363281 -15.144531 2.5625 -15 C 2.757812 -14.863281 2.898438 -14.660156 2.984375 -14.390625 L 5.78125 -3.421875 C 6.238281 -5.234375 6.6875 -7.023438 7.125 -8.796875 C 7.570312 -10.578125 8.015625 -12.367188 8.453125 -14.171875 C 8.535156 -14.472656 8.691406 -14.722656 8.921875 -14.921875 C 9.148438 -15.117188 9.441406 -15.21875 9.796875 -15.21875 C 10.128906 -15.21875 10.40625 -15.117188 10.625 -14.921875 C 10.84375 -14.722656 10.992188 -14.472656 11.078125 -14.171875 C 11.515625 -12.367188 11.960938 -10.578125 12.421875 -8.796875 C 12.878906 -7.023438 13.332031 -5.234375 13.78125 -3.421875 L 16.5625 -14.390625 C 16.613281 -14.617188 16.738281 -14.8125 16.9375 -14.96875 C 17.144531 -15.132812 17.375 -15.21875 17.625 -15.21875 C 17.925781 -15.21875 18.191406 -15.109375 18.421875 -14.890625 C 18.648438 -14.671875 18.765625 -14.394531 18.765625 -14.0625 C 18.765625 -14.039062 18.757812 -14.007812 18.75 -13.96875 C 18.738281 -13.925781 18.734375 -13.882812 18.734375 -13.84375 Z M 18.734375 -13.84375 "/></g></g></g><g fill="#000000" fill-opacity="1"><g transform="translate(122.320261, 277.381121)"><g><path d="M 6.90625 -1.8125 C 7.539062 -1.8125 8.085938 -1.890625 8.546875 -2.046875 C 9.003906 -2.210938 9.488281 -2.414062 10 -2.65625 C 10.039062 -2.675781 10.097656 -2.691406 10.171875 -2.703125 C 10.242188 -2.722656 10.328125 -2.734375 10.421875 -2.734375 C 10.722656 -2.734375 10.972656 -2.628906 11.171875 -2.421875 C 11.367188 -2.210938 11.46875 -1.972656 11.46875 -1.703125 C 11.46875 -1.335938 11.289062 -1.03125 10.9375 -0.78125 C 10.59375 -0.539062 10.160156 -0.34375 9.640625 -0.1875 C 9.128906 -0.0390625 8.597656 0.0625 8.046875 0.125 C 7.503906 0.195312 7.035156 0.234375 6.640625 0.234375 C 4.953125 0.234375 3.644531 -0.238281 2.71875 -1.1875 C 1.800781 -2.144531 1.34375 -3.316406 1.34375 -4.703125 L 1.34375 -10.28125 C 1.34375 -11.707031 1.804688 -12.898438 2.734375 -13.859375 C 3.671875 -14.828125 5.023438 -15.3125 6.796875 -15.3125 C 8.441406 -15.3125 9.675781 -14.867188 10.5 -13.984375 C 11.320312 -13.097656 11.734375 -11.921875 11.734375 -10.453125 C 11.734375 -9.078125 11.332031 -8 10.53125 -7.21875 C 9.738281 -6.4375 8.460938 -6.046875 6.703125 -6.046875 C 6.265625 -6.046875 5.773438 -6.066406 5.234375 -6.109375 C 4.703125 -6.160156 4.175781 -6.226562 3.65625 -6.3125 L 3.65625 -4.5625 C 3.65625 -3.726562 3.925781 -3.0625 4.46875 -2.5625 C 5.019531 -2.0625 5.832031 -1.8125 6.90625 -1.8125 Z M 9.4375 -10.453125 C 9.4375 -11.421875 9.203125 -12.117188 8.734375 -12.546875 C 8.273438 -12.972656 7.609375 -13.1875 6.734375 -13.1875 C 5.753906 -13.1875 4.992188 -12.941406 4.453125 -12.453125 C 3.921875 -11.972656 3.65625 -11.316406 3.65625 -10.484375 L 3.65625 -8.21875 C 4.21875 -8.132812 4.804688 -8.078125 5.421875 -8.046875 C 6.035156 -8.023438 6.492188 -8.015625 6.796875 -8.015625 C 7.546875 -8.015625 8.109375 -8.128906 8.484375 -8.359375 C 8.859375 -8.597656 9.109375 -8.90625 9.234375 -9.28125 C 9.367188 -9.664062 9.4375 -10.054688 9.4375 -10.453125 Z M 9.4375 -10.453125 "/></g></g></g><g fill="#000000" fill-opacity="1"><g transform="translate(144.199713, 277.381121)"><g><path d="M 4.53125 -11.796875 L 4.53125 -4.46875 C 4.53125 -3.675781 4.804688 -3.050781 5.359375 -2.59375 C 5.910156 -2.132812 6.675781 -1.90625 7.65625 -1.90625 C 8.726562 -1.90625 9.515625 -2.1875 10.015625 -2.75 C 10.523438 -3.320312 10.78125 -4.09375 10.78125 -5.0625 L 10.78125 -10.65625 C 10.78125 -11.46875 10.550781 -12.109375 10.09375 -12.578125 C 9.632812 -13.046875 8.910156 -13.28125 7.921875 -13.28125 C 7.179688 -13.28125 6.535156 -13.144531 5.984375 -12.875 C 5.429688 -12.613281 4.945312 -12.253906 4.53125 -11.796875 Z M 2.203125 -4.46875 L 2.203125 -20.453125 C 2.203125 -20.753906 2.300781 -21.019531 2.5 -21.25 C 2.695312 -21.476562 2.984375 -21.59375 3.359375 -21.59375 C 3.742188 -21.59375 4.035156 -21.476562 4.234375 -21.25 C 4.429688 -21.019531 4.53125 -20.753906 4.53125 -20.453125 L 4.53125 -14.09375 C 5.082031 -14.488281 5.679688 -14.789062 6.328125 -15 C 6.972656 -15.207031 7.691406 -15.3125 8.484375 -15.3125 C 9.617188 -15.3125 10.519531 -15.109375 11.1875 -14.703125 C 11.863281 -14.296875 12.351562 -13.738281 12.65625 -13.03125 C 12.957031 -12.320312 13.109375 -11.53125 13.109375 -10.65625 L 13.109375 -5.0625 C 13.109375 -4.070312 12.898438 -3.171875 12.484375 -2.359375 C 12.078125 -1.554688 11.472656 -0.921875 10.671875 -0.453125 C 9.867188 0.00390625 8.863281 0.234375 7.65625 0.234375 C 6.5 0.234375 5.515625 0.0234375 4.703125 -0.390625 C 3.890625 -0.804688 3.269531 -1.367188 2.84375 -2.078125 C 2.414062 -2.796875 2.203125 -3.59375 2.203125 -4.46875 Z M 2.203125 -4.46875 "/></g></g></g><g fill="#000000" fill-opacity="1"><g transform="translate(167.567109, 277.381121)"><g/></g></g><g fill="#000000" fill-opacity="1"><g transform="translate(185.429091, 277.381121)"><g><path d="M 7.921875 0.203125 C 6.847656 0.203125 5.742188 0.015625 4.609375 -0.359375 L 4.609375 5.265625 C 4.609375 5.585938 4.507812 5.859375 4.3125 6.078125 C 4.113281 6.296875 3.828125 6.40625 3.453125 6.40625 C 3.078125 6.40625 2.789062 6.296875 2.59375 6.078125 C 2.394531 5.859375 2.296875 5.585938 2.296875 5.265625 L 2.296875 -10.984375 C 2.296875 -11.898438 2.132812 -12.597656 1.8125 -13.078125 C 1.757812 -13.171875 1.710938 -13.257812 1.671875 -13.34375 C 1.628906 -13.425781 1.609375 -13.535156 1.609375 -13.671875 C 1.609375 -13.984375 1.71875 -14.234375 1.9375 -14.421875 C 2.15625 -14.617188 2.394531 -14.71875 2.65625 -14.71875 C 2.894531 -14.71875 3.113281 -14.648438 3.3125 -14.515625 C 3.507812 -14.390625 3.675781 -14.21875 3.8125 -14 C 4.488281 -14.351562 5.1875 -14.660156 5.90625 -14.921875 C 6.632812 -15.179688 7.382812 -15.3125 8.15625 -15.3125 C 9.726562 -15.3125 10.910156 -14.789062 11.703125 -13.75 C 12.492188 -12.707031 12.890625 -11.347656 12.890625 -9.671875 L 12.890625 -5.8125 C 12.890625 -4.632812 12.734375 -3.585938 12.421875 -2.671875 C 12.117188 -1.765625 11.609375 -1.054688 10.890625 -0.546875 C 10.179688 -0.046875 9.191406 0.203125 7.921875 0.203125 Z M 4.609375 -10.984375 L 4.609375 -2.4375 C 5.085938 -2.21875 5.613281 -2.054688 6.1875 -1.953125 C 6.769531 -1.859375 7.25 -1.8125 7.625 -1.8125 C 8.71875 -1.8125 9.484375 -2.128906 9.921875 -2.765625 C 10.359375 -3.398438 10.578125 -4.414062 10.578125 -5.8125 L 10.578125 -9.671875 C 10.578125 -12.035156 9.613281 -13.21875 7.6875 -13.21875 C 7.1875 -13.21875 6.648438 -13.128906 6.078125 -12.953125 C 5.515625 -12.773438 4.976562 -12.523438 4.46875 -12.203125 C 4.507812 -11.984375 4.539062 -11.769531 4.5625 -11.5625 C 4.59375 -11.351562 4.609375 -11.160156 4.609375 -10.984375 Z M 4.609375 -10.984375 "/></g></g></g><g fill="#000000" fill-opacity="1"><g transform="translate(208.588163, 277.381121)"><g><path d="M 4.609375 -10.984375 L 4.609375 -0.921875 C 4.609375 -0.609375 4.5 -0.335938 4.28125 -0.109375 C 4.0625 0.117188 3.785156 0.234375 3.453125 0.234375 C 3.140625 0.234375 2.867188 0.117188 2.640625 -0.109375 C 2.410156 -0.335938 2.296875 -0.609375 2.296875 -0.921875 L 2.296875 -10.984375 C 2.296875 -11.898438 2.132812 -12.597656 1.8125 -13.078125 C 1.757812 -13.171875 1.710938 -13.257812 1.671875 -13.34375 C 1.628906 -13.425781 1.609375 -13.535156 1.609375 -13.671875 C 1.609375 -13.984375 1.71875 -14.234375 1.9375 -14.421875 C 2.15625 -14.617188 2.40625 -14.71875 2.6875 -14.71875 C 2.914062 -14.71875 3.132812 -14.640625 3.34375 -14.484375 C 3.550781 -14.335938 3.726562 -14.144531 3.875 -13.90625 C 4.507812 -14.300781 5.207031 -14.613281 5.96875 -14.84375 C 6.738281 -15.070312 7.398438 -15.1875 7.953125 -15.1875 C 8.546875 -15.1875 8.953125 -15.078125 9.171875 -14.859375 C 9.390625 -14.640625 9.5 -14.375 9.5 -14.0625 C 9.5 -13.675781 9.382812 -13.375 9.15625 -13.15625 C 8.925781 -12.9375 8.65625 -12.835938 8.34375 -12.859375 C 7.726562 -12.878906 7.128906 -12.84375 6.546875 -12.75 C 5.972656 -12.664062 5.3125 -12.347656 4.5625 -11.796875 C 4.582031 -11.648438 4.59375 -11.507812 4.59375 -11.375 C 4.601562 -11.238281 4.609375 -11.109375 4.609375 -10.984375 Z M 4.609375 -10.984375 "/></g></g></g><g fill="#000000" fill-opacity="1"><g transform="translate(227.551227, 277.381121)"><g><path d="M 6.90625 0.234375 C 5.695312 0.234375 4.679688 0.00390625 3.859375 -0.453125 C 3.035156 -0.921875 2.410156 -1.554688 1.984375 -2.359375 C 1.554688 -3.171875 1.34375 -4.070312 1.34375 -5.0625 L 1.34375 -10.03125 C 1.34375 -11.03125 1.554688 -11.929688 1.984375 -12.734375 C 2.410156 -13.535156 3.035156 -14.171875 3.859375 -14.640625 C 4.679688 -15.109375 5.695312 -15.34375 6.90625 -15.34375 C 8.113281 -15.34375 9.128906 -15.109375 9.953125 -14.640625 C 10.785156 -14.171875 11.414062 -13.535156 11.84375 -12.734375 C 12.269531 -11.929688 12.484375 -11.03125 12.484375 -10.03125 L 12.484375 -5.0625 C 12.484375 -4.070312 12.269531 -3.171875 11.84375 -2.359375 C 11.414062 -1.554688 10.785156 -0.921875 9.953125 -0.453125 C 9.128906 0.00390625 8.113281 0.234375 6.90625 0.234375 Z M 6.90625 -1.90625 C 7.976562 -1.90625 8.785156 -2.1875 9.328125 -2.75 C 9.878906 -3.320312 10.15625 -4.09375 10.15625 -5.0625 L 10.15625 -10.0625 C 10.15625 -11.039062 9.878906 -11.804688 9.328125 -12.359375 C 8.785156 -12.910156 7.976562 -13.1875 6.90625 -13.1875 C 5.832031 -13.1875 5.019531 -12.910156 4.46875 -12.359375 C 3.925781 -11.804688 3.65625 -11.039062 3.65625 -10.0625 L 3.65625 -5.0625 C 3.65625 -4.09375 3.925781 -3.320312 4.46875 -2.75 C 5.019531 -2.1875 5.832031 -1.90625 6.90625 -1.90625 Z M 6.90625 -1.90625 "/></g></g></g></svg>