<svg xmlns="http://www.w3.org/2000/svg" xmlns:xlink="http://www.w3.org/1999/xlink" width="500" zoomAndPan="magnify" viewBox="0 0 375 374.999991" height="500" preserveAspectRatio="xMidYMid meet" version="1.0"><defs><g/><clipPath id="d2ca3466d5"><path d="M 270.820312 113.628906 L 310.441406 113.628906 L 310.441406 153.246094 L 270.820312 153.246094 Z M 270.820312 113.628906 " clip-rule="nonzero"/></clipPath><clipPath id="a79e872895"><path d="M 290.628906 113.628906 C 279.6875 113.628906 270.820312 122.496094 270.820312 133.4375 C 270.820312 144.378906 279.6875 153.246094 290.628906 153.246094 C 301.570312 153.246094 310.441406 144.378906 310.441406 133.4375 C 310.441406 122.496094 301.570312 113.628906 290.628906 113.628906 Z M 290.628906 113.628906 " clip-rule="nonzero"/></clipPath><clipPath id="b6482296c7"><path d="M 302 134 L 330 134 L 330 163 L 302 163 Z M 302 134 " clip-rule="nonzero"/></clipPath><clipPath id="cf9e2b1fb7"><path d="M 296.726562 144.65625 L 320.070312 129.449219 L 335.277344 152.789062 L 311.9375 168 Z M 296.726562 144.65625 " clip-rule="nonzero"/></clipPath><clipPath id="f3ca45d49c"><path d="M 308.398438 137.054688 C 301.953125 141.253906 300.132812 149.882812 304.332031 156.328125 C 308.53125 162.773438 317.160156 164.59375 323.605469 160.394531 C 330.050781 156.195312 331.871094 147.566406 327.671875 141.121094 C 323.472656 134.675781 314.84375 132.855469 308.398438 137.054688 Z M 308.398438 137.054688 " clip-rule="nonzero"/></clipPath><clipPath id="d97c1ee4c2"><path d="M 335.277344 214 L 354 214 L 354 234 L 335.277344 234 Z M 335.277344 214 " clip-rule="nonzero"/></clipPath><clipPath id="3a35cc1bd7"><path d="M 348 240 L 370 240 L 370 258.664062 L 348 258.664062 Z M 348 240 " clip-rule="nonzero"/></clipPath><clipPath id="eb8669ca1c"><path d="M 116.195312 107 L 163 107 L 163 120 L 116.195312 120 Z M 116.195312 107 " clip-rule="nonzero"/></clipPath><clipPath id="ef7fd5d90e"><path d="M 116.195312 90.433594 L 163 90.433594 L 163 136.933594 L 116.195312 136.933594 Z M 116.195312 90.433594 " clip-rule="nonzero"/></clipPath><clipPath id="08c5d593ea"><path d="M 154.332031 122.066406 L 164.0625 122.066406 L 164.0625 131.898438 L 154.332031 131.898438 Z M 154.332031 122.066406 " clip-rule="nonzero"/></clipPath></defs><g fill="#00bfaa" fill-opacity="1"><g transform="translate(5.125017, 231.717465)"><g><path d="M 1.90625 -98.40625 L 1.90625 -127.34375 C 1.90625 -130.257812 2.789062 -132.601562 4.5625 -134.375 C 6.34375 -136.15625 8.691406 -137.046875 11.609375 -137.046875 L 97.453125 -137.046875 C 100.367188 -137.046875 102.710938 -136.15625 104.484375 -134.375 C 106.265625 -132.601562 107.15625 -130.257812 107.15625 -127.34375 L 107.15625 -98.40625 C 107.15625 -96.945312 106.648438 -95.769531 105.640625 -94.875 C 104.628906 -93.988281 103.425781 -93.546875 102.03125 -93.546875 C 100.0625 -93.546875 98.234375 -93.925781 96.546875 -94.6875 C 94.867188 -95.457031 93.203125 -96.425781 91.546875 -97.59375 C 89.898438 -98.769531 88.203125 -99.925781 86.453125 -101.0625 C 84.710938 -102.207031 82.78125 -103.160156 80.65625 -103.921875 C 78.53125 -104.679688 76.132812 -105.0625 73.46875 -105.0625 L 72.046875 -105.0625 L 72.046875 -68.53125 C 72.046875 -61.738281 72.25 -55.882812 72.65625 -50.96875 C 73.070312 -46.050781 73.613281 -41.8125 74.28125 -38.25 C 74.945312 -34.695312 75.644531 -31.617188 76.375 -29.015625 C 77.101562 -26.421875 77.800781 -24.078125 78.46875 -21.984375 C 79.132812 -19.890625 79.671875 -17.796875 80.078125 -15.703125 C 80.492188 -13.609375 80.703125 -11.257812 80.703125 -8.65625 C 80.703125 -6.3125 80.144531 -4.535156 79.03125 -3.328125 C 77.925781 -2.117188 76.5625 -1.273438 74.9375 -0.796875 C 73.320312 -0.328125 71.722656 -0.078125 70.140625 -0.046875 C 68.554688 -0.015625 67.253906 0 66.234375 0 L 41.6875 0 C 40.664062 0 39.363281 -0.015625 37.78125 -0.046875 C 36.195312 -0.078125 34.59375 -0.328125 32.96875 -0.796875 C 31.351562 -1.273438 29.988281 -2.117188 28.875 -3.328125 C 27.769531 -4.535156 27.21875 -6.3125 27.21875 -8.65625 C 27.21875 -11.257812 27.421875 -13.609375 27.828125 -15.703125 C 28.242188 -17.796875 28.785156 -19.890625 29.453125 -21.984375 C 30.117188 -24.078125 30.816406 -26.421875 31.546875 -29.015625 C 32.273438 -31.617188 32.972656 -34.695312 33.640625 -38.25 C 34.304688 -41.8125 34.84375 -46.050781 35.25 -50.96875 C 35.664062 -55.882812 35.875 -61.738281 35.875 -68.53125 L 35.875 -105.0625 L 35.59375 -105.0625 C 32.925781 -105.0625 30.53125 -104.679688 28.40625 -103.921875 C 26.28125 -103.160156 24.34375 -102.207031 22.59375 -101.0625 C 20.851562 -99.925781 19.15625 -98.769531 17.5 -97.59375 C 15.851562 -96.425781 14.191406 -95.457031 12.515625 -94.6875 C 10.835938 -93.925781 9.015625 -93.546875 7.046875 -93.546875 C 5.648438 -93.546875 4.441406 -93.988281 3.421875 -94.875 C 2.410156 -95.769531 1.90625 -96.945312 1.90625 -98.40625 Z M 1.90625 -98.40625 "/></g></g></g><g fill="#00bfaa" fill-opacity="1"><g transform="translate(114.188814, 231.717465)"><g><path d="M 2.375 -47.59375 C 2.375 -54.1875 3.117188 -59.988281 4.609375 -65 C 6.109375 -70.007812 8.125 -74.320312 10.65625 -77.9375 C 13.195312 -81.5625 16.019531 -84.5625 19.125 -86.9375 C 22.238281 -89.320312 25.441406 -91.226562 28.734375 -92.65625 C 32.035156 -94.082031 35.207031 -95.09375 38.25 -95.6875 C 41.300781 -96.289062 43.96875 -96.59375 46.25 -96.59375 C 50.375 -96.65625 53.65625 -96.5625 56.09375 -96.3125 C 58.539062 -96.0625 60.570312 -95.804688 62.1875 -95.546875 C 63.8125 -95.296875 65.414062 -95.171875 67 -95.171875 C 70.300781 -95.171875 72.96875 -95.296875 75 -95.546875 C 77.03125 -95.804688 78.789062 -96.046875 80.28125 -96.265625 C 81.769531 -96.484375 83.242188 -96.59375 84.703125 -96.59375 C 85.710938 -96.59375 86.898438 -96.46875 88.265625 -96.21875 C 89.628906 -95.96875 90.976562 -95.457031 92.3125 -94.6875 C 93.644531 -93.925781 94.753906 -92.847656 95.640625 -91.453125 C 96.535156 -90.054688 96.984375 -88.21875 96.984375 -85.9375 C 96.984375 -83.71875 96.648438 -81.398438 95.984375 -78.984375 C 95.316406 -76.578125 94.566406 -73.914062 93.734375 -71 C 92.910156 -68.082031 92.164062 -64.71875 91.5 -60.90625 C 90.84375 -57.101562 90.515625 -52.664062 90.515625 -47.59375 C 90.515625 -43.207031 90.75 -39.472656 91.21875 -36.390625 C 91.695312 -33.316406 92.300781 -30.65625 93.03125 -28.40625 C 93.757812 -26.15625 94.488281 -24.1875 95.21875 -22.5 C 95.945312 -20.820312 96.546875 -19.222656 97.015625 -17.703125 C 97.492188 -16.179688 97.734375 -14.5625 97.734375 -12.84375 C 97.734375 -10.050781 96.65625 -7.578125 94.5 -5.421875 C 92.34375 -3.265625 89.457031 -1.582031 85.84375 -0.375 C 82.226562 0.820312 78.164062 1.421875 73.65625 1.421875 C 71.695312 1.421875 70.175781 1.132812 69.09375 0.5625 C 68.019531 0 67.148438 -0.644531 66.484375 -1.375 C 65.816406 -2.101562 65.097656 -2.753906 64.328125 -3.328125 C 63.566406 -3.898438 62.554688 -4.1875 61.296875 -4.1875 C 59.898438 -4.1875 58.660156 -3.898438 57.578125 -3.328125 C 56.503906 -2.753906 55.285156 -2.101562 53.921875 -1.375 C 52.554688 -0.644531 50.859375 0 48.828125 0.5625 C 46.796875 1.132812 44.128906 1.421875 40.828125 1.421875 C 35.554688 1.421875 30.585938 0.25 25.921875 -2.09375 C 21.265625 -4.4375 17.175781 -7.765625 13.65625 -12.078125 C 10.132812 -16.398438 7.375 -21.570312 5.375 -27.59375 C 3.375 -33.625 2.375 -40.289062 2.375 -47.59375 Z M 47.015625 -71.46875 C 44.472656 -71.46875 42.425781 -69.28125 40.875 -64.90625 C 39.320312 -60.53125 38.546875 -54.757812 38.546875 -47.59375 C 38.546875 -40.476562 39.320312 -34.734375 40.875 -30.359375 C 42.425781 -25.984375 44.472656 -23.796875 47.015625 -23.796875 C 49.554688 -23.796875 51.601562 -25.984375 53.15625 -30.359375 C 54.707031 -34.734375 55.484375 -40.476562 55.484375 -47.59375 C 55.484375 -54.757812 54.707031 -60.53125 53.15625 -64.90625 C 51.601562 -69.28125 49.554688 -71.46875 47.015625 -71.46875 Z M 47.015625 -71.46875 "/></g></g></g><g fill="#00bfaa" fill-opacity="1"><g transform="translate(212.784009, 231.717465)"><g><path d="M 0.953125 -81.75 C 0.953125 -83.96875 1.835938 -85.695312 3.609375 -86.9375 C 5.390625 -88.175781 7.644531 -89.191406 10.375 -89.984375 C 13.101562 -90.773438 15.894531 -91.550781 18.75 -92.3125 C 19.894531 -92.632812 21.335938 -93.03125 23.078125 -93.5 C 24.828125 -93.976562 26.601562 -94.453125 28.40625 -94.921875 C 30.21875 -95.398438 31.835938 -95.796875 33.265625 -96.109375 C 34.691406 -96.429688 35.722656 -96.59375 36.359375 -96.59375 C 38.128906 -96.59375 39.820312 -95.910156 41.4375 -94.546875 C 43.0625 -93.179688 44.378906 -90.660156 45.390625 -86.984375 C 45.523438 -86.472656 45.734375 -86.0625 46.015625 -85.75 C 46.296875 -85.4375 46.753906 -85.28125 47.390625 -85.28125 C 47.960938 -85.28125 49.007812 -85.847656 50.53125 -86.984375 C 52.0625 -88.128906 54.03125 -89.445312 56.4375 -90.9375 C 58.84375 -92.425781 61.695312 -93.738281 65 -94.875 C 68.300781 -96.019531 72.046875 -96.59375 76.234375 -96.59375 C 82.003906 -96.59375 86.664062 -95.304688 90.21875 -92.734375 C 93.769531 -90.171875 96.382812 -86.632812 98.0625 -82.125 C 99.75 -77.625 100.59375 -72.457031 100.59375 -66.625 L 100.59375 -47.59375 C 100.59375 -43.207031 101.019531 -39.175781 101.875 -35.5 C 102.738281 -31.820312 103.753906 -28.410156 104.921875 -25.265625 C 106.097656 -22.128906 107.113281 -19.179688 107.96875 -16.421875 C 108.820312 -13.660156 109.25 -11.007812 109.25 -8.46875 C 109.25 -6.1875 108.691406 -4.457031 107.578125 -3.28125 C 106.472656 -2.101562 105.113281 -1.273438 103.5 -0.796875 C 101.882812 -0.328125 100.28125 -0.078125 98.6875 -0.046875 C 97.101562 -0.015625 95.804688 0 94.796875 0 L 77 0 C 76.164062 0 75.035156 0 73.609375 0 C 72.179688 0 70.644531 -0.109375 69 -0.328125 C 67.351562 -0.554688 65.765625 -0.953125 64.234375 -1.515625 C 62.710938 -2.085938 61.476562 -2.925781 60.53125 -4.03125 C 59.582031 -5.144531 59.109375 -6.625 59.109375 -8.46875 C 59.109375 -12.71875 59.566406 -16.984375 60.484375 -21.265625 C 61.398438 -25.546875 62.316406 -29.875 63.234375 -34.25 C 64.160156 -38.632812 64.5625 -43.082031 64.4375 -47.59375 C 64.375 -49.550781 64.210938 -51.625 63.953125 -53.8125 C 63.703125 -56.007812 63.257812 -58.070312 62.625 -60 C 61.988281 -61.9375 61.066406 -63.523438 59.859375 -64.765625 C 58.660156 -66.003906 57.109375 -66.625 55.203125 -66.625 C 53.171875 -66.625 51.550781 -66.003906 50.34375 -64.765625 C 49.132812 -63.523438 48.242188 -61.9375 47.671875 -60 C 47.109375 -58.070312 46.742188 -55.992188 46.578125 -53.765625 C 46.421875 -51.546875 46.34375 -49.488281 46.34375 -47.59375 C 46.34375 -43.90625 46.785156 -40.285156 47.671875 -36.734375 C 48.566406 -33.179688 49.582031 -29.753906 50.71875 -26.453125 C 51.863281 -23.160156 52.878906 -20.003906 53.765625 -16.984375 C 54.660156 -13.972656 55.109375 -11.132812 55.109375 -8.46875 C 55.109375 -6.625 54.628906 -5.144531 53.671875 -4.03125 C 52.722656 -2.925781 51.488281 -2.085938 49.96875 -1.515625 C 48.445312 -0.953125 46.859375 -0.554688 45.203125 -0.328125 C 43.554688 -0.109375 42.019531 0 40.59375 0 C 39.164062 0 38.039062 0 37.21875 0 L 16.078125 0 C 15.066406 0 13.765625 -0.015625 12.171875 -0.046875 C 10.585938 -0.078125 8.988281 -0.328125 7.375 -0.796875 C 5.757812 -1.273438 4.394531 -2.101562 3.28125 -3.28125 C 2.175781 -4.457031 1.625 -6.1875 1.625 -8.46875 C 1.625 -11.007812 2.050781 -13.660156 2.90625 -16.421875 C 3.757812 -19.179688 4.769531 -22.128906 5.9375 -25.265625 C 7.113281 -28.410156 8.128906 -31.820312 8.984375 -35.5 C 9.847656 -39.175781 10.28125 -43.207031 10.28125 -47.59375 C 10.28125 -51.78125 9.960938 -55.332031 9.328125 -58.25 C 8.691406 -61.164062 7.910156 -63.671875 6.984375 -65.765625 C 6.066406 -67.859375 5.148438 -69.726562 4.234375 -71.375 C 3.316406 -73.03125 2.539062 -74.664062 1.90625 -76.28125 C 1.269531 -77.894531 0.953125 -79.71875 0.953125 -81.75 Z M 0.953125 -81.75 "/></g></g></g><g clip-path="url(#d2ca3466d5)"><g clip-path="url(#a79e872895)"><path fill="#ffffff" d="M 270.820312 113.628906 L 310.441406 113.628906 L 310.441406 153.246094 L 270.820312 153.246094 Z M 270.820312 113.628906 " fill-opacity="1" fill-rule="nonzero"/></g></g><g clip-path="url(#b6482296c7)"><g clip-path="url(#cf9e2b1fb7)"><g clip-path="url(#f3ca45d49c)"><path fill="#ffffff" d="M 296.726562 144.65625 L 320.070312 129.449219 L 335.277344 152.789062 L 311.9375 168 Z M 296.726562 144.65625 " fill-opacity="1" fill-rule="nonzero"/></g></g></g><g clip-path="url(#d97c1ee4c2)"><path fill="#f27141" d="M 335.277344 228.457031 C 335.277344 228.457031 337.25 238.09375 351.742188 230.757812 C 351.742188 230.757812 358.039062 226.128906 349.5625 219.992188 C 349.5625 219.992188 338.289062 203.929688 335.277344 228.457031 Z M 335.277344 228.457031 " fill-opacity="1" fill-rule="nonzero"/></g><path fill="#f27141" d="M 362.570312 223.871094 C 362.570312 223.871094 363.535156 228.589844 370.640625 224.996094 C 370.640625 224.996094 373.730469 222.722656 369.578125 219.714844 C 369.578125 219.714844 364.050781 211.851562 362.570312 223.871094 Z M 362.570312 223.871094 " fill-opacity="1" fill-rule="nonzero"/><g clip-path="url(#3a35cc1bd7)"><path fill="#f27141" d="M 358.734375 240.175781 C 358.734375 240.175781 342.519531 245.445312 350.3125 251.15625 C 358.09375 256.859375 362.011719 258.875 362.011719 258.875 C 362.011719 258.875 374.992188 240.8125 366.855469 240.496094 C 358.734375 240.175781 358.734375 240.175781 358.734375 240.175781 Z M 358.734375 240.175781 " fill-opacity="1" fill-rule="nonzero"/></g><g clip-path="url(#eb8669ca1c)"><path fill="#f27141" d="M 118.441406 118.527344 L 160.417969 118.527344 C 160.664062 117.097656 161.0625 114.570312 161.0625 113.625 C 161.0625 112.679688 160.664062 110.148438 160.417969 108.722656 L 118.441406 108.722656 L 117.832031 113.625 Z M 161.648438 119.996094 L 117.144531 119.996094 L 116.351562 113.625 L 117.144531 107.253906 L 161.648438 107.253906 L 161.757812 107.855469 C 161.789062 108.03125 162.53125 112.167969 162.53125 113.625 C 162.53125 115.082031 161.789062 119.21875 161.757812 119.394531 L 161.648438 119.996094 " fill-opacity="1" fill-rule="nonzero"/></g><path fill="#f27141" d="M 135.15625 110.792969 L 133.515625 116.980469 L 131.921875 116.980469 L 131.054688 113.566406 L 130.238281 116.980469 L 128.574219 116.980469 L 126.929688 110.792969 L 128.714844 110.792969 L 129.582031 114.355469 L 130.425781 110.792969 L 131.917969 110.792969 L 132.835938 114.363281 L 133.703125 110.792969 L 135.15625 110.792969 " fill-opacity="1" fill-rule="nonzero"/><path fill="#f27141" d="M 143.511719 110.792969 L 141.871094 116.980469 L 140.277344 116.980469 L 139.410156 113.566406 L 138.59375 116.980469 L 136.929688 116.980469 L 135.285156 110.792969 L 137.070312 110.792969 L 137.9375 114.355469 L 138.78125 110.792969 L 140.273438 110.792969 L 141.191406 114.363281 L 142.058594 110.792969 L 143.511719 110.792969 " fill-opacity="1" fill-rule="nonzero"/><path fill="#f27141" d="M 151.867188 110.792969 L 150.226562 116.980469 L 148.632812 116.980469 L 147.765625 113.566406 L 146.949219 116.980469 L 145.285156 116.980469 L 143.640625 110.792969 L 145.425781 110.792969 L 146.292969 114.355469 L 147.136719 110.792969 L 148.628906 110.792969 L 149.546875 114.363281 L 150.414062 110.792969 L 151.867188 110.792969 " fill-opacity="1" fill-rule="nonzero"/><path fill="#f27141" d="M 123.460938 125.515625 C 124.414062 125 126.507812 123.996094 129.5625 123.199219 C 129.253906 121.945312 129.007812 120.625 128.824219 119.261719 L 120.324219 119.261719 C 121 121.542969 122.070312 123.652344 123.460938 125.515625 " fill-opacity="1" fill-rule="nonzero"/><path fill="#f27141" d="M 140.015625 103.621094 L 140.015625 107.988281 L 147.941406 107.988281 C 147.699219 106.222656 147.355469 104.582031 146.917969 103.097656 C 144.425781 103.40625 142.117188 103.566406 140.015625 103.621094 " fill-opacity="1" fill-rule="nonzero"/><path fill="#f27141" d="M 138.230469 103.644531 C 135.746094 103.644531 133.59375 103.503906 131.820312 103.3125 C 131.746094 103.304688 131.671875 103.296875 131.597656 103.289062 C 131.1875 104.722656 130.859375 106.296875 130.628906 107.988281 L 138.554688 107.988281 L 138.554688 103.644531 C 138.449219 103.644531 138.339844 103.644531 138.230469 103.644531 " fill-opacity="1" fill-rule="nonzero"/><path fill="#f27141" d="M 123.527344 101.648438 C 122.105469 103.53125 121.011719 105.671875 120.324219 107.988281 L 128.824219 107.988281 C 129.054688 106.261719 129.390625 104.609375 129.828125 103.058594 C 126.601562 102.585938 124.457031 101.960938 123.527344 101.648438 " fill-opacity="1" fill-rule="nonzero"/><path fill="#f27141" d="M 131.292969 122.800781 C 131.550781 122.746094 131.8125 122.695312 132.078125 122.644531 C 134.191406 122.261719 136.359375 122.0625 138.554688 122.058594 L 138.554688 119.261719 L 130.632812 119.261719 C 130.800781 120.507812 131.023438 121.691406 131.292969 122.800781 " fill-opacity="1" fill-rule="nonzero"/><path fill="#f27141" d="M 131.421875 128.472656 C 130.851562 127.289062 130.359375 125.996094 129.949219 124.609375 C 127.28125 125.308594 125.375 126.171875 124.398438 126.671875 C 127.023438 129.6875 130.539062 131.90625 134.535156 132.914062 C 133.375 131.832031 132.320312 130.339844 131.421875 128.472656 " fill-opacity="1" fill-rule="nonzero"/><path fill="#f27141" d="M 147.152344 128.472656 C 146.230469 130.382812 145.148438 131.898438 143.957031 132.988281 C 148.042969 132.027344 151.644531 129.804688 154.328125 126.753906 C 152.328125 125.9375 150.402344 125.308594 148.558594 124.828125 C 148.160156 126.132812 147.691406 127.351562 147.152344 128.472656 " fill-opacity="1" fill-rule="nonzero"/><path fill="#f27141" d="M 131.671875 124.210938 C 133.242188 129.53125 135.902344 132.910156 138.554688 133.441406 L 138.554688 123.527344 C 136.199219 123.53125 134.132812 123.757812 132.414062 124.066406 C 132.160156 124.113281 131.914062 124.160156 131.671875 124.210938 " fill-opacity="1" fill-rule="nonzero"/><path fill="#f27141" d="M 140.015625 123.554688 L 140.015625 133.441406 C 142.632812 132.917969 145.261719 129.621094 146.839844 124.421875 C 144.386719 123.894531 142.101562 123.632812 140.015625 123.554688 " fill-opacity="1" fill-rule="nonzero"/><path fill="#f27141" d="M 140.015625 93.808594 L 140.015625 102.160156 C 141.984375 102.105469 144.140625 101.960938 146.464844 101.683594 C 144.863281 97.144531 142.4375 94.292969 140.015625 93.808594 " fill-opacity="1" fill-rule="nonzero"/><path fill="#f27141" d="M 131.421875 98.777344 C 132.320312 96.910156 133.375 95.417969 134.535156 94.335938 C 130.605469 95.328125 127.136719 97.492188 124.527344 100.429688 C 125.609375 100.757812 127.558594 101.261719 130.261719 101.644531 C 130.605469 100.632812 130.992188 99.671875 131.421875 98.777344 " fill-opacity="1" fill-rule="nonzero"/><path fill="#f27141" d="M 132.046875 101.867188 C 133.835938 102.058594 136.023438 102.195312 138.554688 102.183594 L 138.554688 93.808594 C 136.105469 94.300781 133.640625 97.226562 132.042969 101.867188 C 132.046875 101.867188 132.046875 101.867188 132.046875 101.867188 " fill-opacity="1" fill-rule="nonzero"/><path fill="#f27141" d="M 140.015625 122.085938 C 140.832031 122.113281 141.652344 122.167969 142.476562 122.25 C 144.054688 122.40625 145.640625 122.660156 147.230469 123.007812 C 147.523438 121.839844 147.761719 120.585938 147.941406 119.261719 L 140.015625 119.261719 L 140.015625 122.085938 " fill-opacity="1" fill-rule="nonzero"/><path fill="#f27141" d="M 148.6875 102.855469 C 149.152344 104.460938 149.507812 106.1875 149.75 107.988281 L 158.472656 107.988281 C 157.78125 105.652344 156.675781 103.496094 155.234375 101.605469 C 152.945312 102.140625 150.757812 102.550781 148.6875 102.855469 " fill-opacity="1" fill-rule="nonzero"/><path fill="#f27141" d="M 147.152344 98.777344 C 147.554688 99.613281 147.917969 100.507812 148.242188 101.445312 C 150.128906 101.171875 152.117188 100.8125 154.195312 100.34375 C 151.523438 97.371094 147.972656 95.207031 143.957031 94.261719 C 145.148438 95.351562 146.230469 96.867188 147.152344 98.777344 " fill-opacity="1" fill-rule="nonzero"/><path fill="#f27141" d="M 148.953125 123.421875 C 150.691406 123.875 152.429688 124.441406 154.167969 125.121094 L 152.285156 120.054688 L 157.449219 121.972656 C 157.851562 121.101562 158.195312 120.195312 158.472656 119.261719 L 149.75 119.261719 C 149.554688 120.703125 149.292969 122.097656 148.953125 123.421875 " fill-opacity="1" fill-rule="nonzero"/><g clip-path="url(#ef7fd5d90e)"><path fill="#f27141" d="M 139.398438 90.433594 C 126.609375 90.433594 116.207031 100.835938 116.207031 113.625 C 116.207031 126.414062 126.609375 136.816406 139.398438 136.816406 C 145.867188 136.816406 151.722656 134.15625 155.929688 129.871094 L 155.25 128.03125 C 151.324219 132.34375 145.671875 135.054688 139.398438 135.054688 C 129.53125 135.054688 121.207031 128.351562 118.726562 119.261719 C 118.234375 117.464844 117.96875 115.574219 117.96875 113.625 C 117.96875 111.675781 118.234375 109.785156 118.726562 107.988281 C 121.207031 98.898438 129.53125 92.195312 139.398438 92.195312 C 149.265625 92.195312 157.589844 98.898438 160.070312 107.988281 C 160.5625 109.785156 160.828125 111.675781 160.828125 113.625 C 160.828125 115.574219 160.5625 117.464844 160.070312 119.261719 C 159.765625 120.382812 159.367188 121.46875 158.894531 122.507812 L 160.554688 123.125 C 161.859375 120.222656 162.589844 117.007812 162.589844 113.625 C 162.589844 100.835938 152.1875 90.433594 139.398438 90.433594 " fill-opacity="1" fill-rule="nonzero"/></g><g clip-path="url(#08c5d593ea)"><path fill="#f27141" d="M 164.0625 130.636719 L 160.472656 127.046875 L 163.296875 125.445312 L 154.355469 122.125 L 157.679688 131.066406 L 159.277344 128.242188 L 162.867188 131.832031 L 164.0625 130.636719 " fill-opacity="1" fill-rule="nonzero"/></g><g fill="#f27141" fill-opacity="1"><g transform="translate(76.018534, 293.509843)"><g><path d="M 20.09375 0 L 18.515625 -7.265625 L 16.375 -16.46875 L 16.25 -16.46875 L 12.4375 0 L 6.34375 0 L 0.390625 -20.796875 L 6.078125 -20.796875 L 8.453125 -11.609375 C 8.679688 -10.753906 8.875 -9.769531 9.03125 -8.65625 C 9.195312 -7.550781 9.394531 -6.253906 9.625 -4.765625 L 9.765625 -4.765625 C 9.765625 -5.234375 9.828125 -5.835938 9.953125 -6.578125 C 10.085938 -7.328125 10.242188 -8.210938 10.421875 -9.234375 L 10.6875 -10.8125 L 13.265625 -20.796875 L 19.53125 -20.796875 L 21.9375 -10.8125 C 21.988281 -10.550781 22.066406 -10.148438 22.171875 -9.609375 C 22.273438 -9.066406 22.378906 -8.492188 22.484375 -7.890625 C 22.585938 -7.296875 22.679688 -6.710938 22.765625 -6.140625 C 22.847656 -5.578125 22.890625 -5.117188 22.890625 -4.765625 L 23.03125 -4.765625 C 23.082031 -5.203125 23.148438 -5.726562 23.234375 -6.34375 C 23.328125 -6.957031 23.445312 -7.644531 23.59375 -8.40625 L 24.21875 -11.609375 L 26.703125 -20.796875 L 32.265625 -20.796875 L 26.265625 0 Z M 20.09375 0 "/></g></g></g><g fill="#f27141" fill-opacity="1"><g transform="translate(113.574041, 293.509843)"><g><path d="M 11.609375 -17.15625 C 10.378906 -17.15625 9.425781 -16.769531 8.75 -16 C 8.082031 -15.226562 7.691406 -14.140625 7.578125 -12.734375 L 15.546875 -12.734375 C 15.515625 -14.140625 15.15625 -15.226562 14.46875 -16 C 13.78125 -16.769531 12.828125 -17.15625 11.609375 -17.15625 Z M 12.390625 0.34375 C 9.035156 0.34375 6.414062 -0.554688 4.53125 -2.359375 C 2.644531 -4.171875 1.703125 -6.800781 1.703125 -10.25 C 1.703125 -13.78125 2.570312 -16.484375 4.3125 -18.359375 C 6.050781 -20.242188 8.46875 -21.1875 11.5625 -21.1875 C 14.476562 -21.1875 16.757812 -20.363281 18.40625 -18.71875 C 20.0625 -17.070312 20.890625 -14.742188 20.890625 -11.734375 L 20.890625 -8.96875 L 7.4375 -8.96875 C 7.5 -7.363281 7.984375 -6.109375 8.890625 -5.203125 C 9.796875 -4.304688 11.050781 -3.859375 12.65625 -3.859375 C 13.90625 -3.859375 15.082031 -3.988281 16.1875 -4.25 C 17.300781 -4.507812 18.472656 -4.914062 19.703125 -5.46875 L 19.703125 -1.09375 C 18.710938 -0.59375 17.660156 -0.226562 16.546875 0 C 15.441406 0.226562 14.054688 0.34375 12.390625 0.34375 Z M 12.390625 0.34375 "/></g></g></g><g fill="#f27141" fill-opacity="1"><g transform="translate(140.975012, 293.509843)"><g><path d="M 14.53125 -21.1875 C 17.007812 -21.1875 18.9375 -20.226562 20.3125 -18.3125 C 21.6875 -16.40625 22.375 -13.773438 22.375 -10.421875 C 22.375 -6.972656 21.664062 -4.316406 20.25 -2.453125 C 18.832031 -0.585938 16.882812 0.34375 14.40625 0.34375 C 11.925781 0.34375 10.015625 -0.53125 8.671875 -2.28125 L 8.28125 -2.28125 L 7.3125 0 L 2.984375 0 L 2.984375 -28.9375 L 8.671875 -28.9375 L 8.671875 -22.203125 C 8.671875 -21.328125 8.582031 -19.953125 8.40625 -18.078125 L 8.671875 -18.078125 C 9.984375 -20.148438 11.9375 -21.1875 14.53125 -21.1875 Z M 12.734375 -16.640625 C 11.335938 -16.640625 10.3125 -16.210938 9.65625 -15.359375 C 9 -14.515625 8.671875 -13.085938 8.671875 -11.078125 L 8.671875 -10.46875 C 8.671875 -8.25 9 -6.648438 9.65625 -5.671875 C 10.3125 -4.691406 11.351562 -4.203125 12.78125 -4.203125 C 13.945312 -4.203125 14.875 -4.738281 15.5625 -5.8125 C 16.25 -6.894531 16.59375 -8.457031 16.59375 -10.5 C 16.59375 -12.550781 16.253906 -14.085938 15.578125 -15.109375 C 14.910156 -16.128906 13.960938 -16.640625 12.734375 -16.640625 Z M 12.734375 -16.640625 "/></g></g></g><g fill="#f27141" fill-opacity="1"><g transform="translate(169.951685, 293.509843)"><g/></g></g><g fill="#f27141" fill-opacity="1"><g transform="translate(184.484416, 293.509843)"><g><path d="M 14.40625 0.34375 C 11.925781 0.34375 10.015625 -0.53125 8.671875 -2.28125 L 8.359375 -2.28125 C 8.472656 -1.425781 8.550781 -0.742188 8.59375 -0.234375 C 8.644531 0.273438 8.671875 0.601562 8.671875 0.75 L 8.671875 9.15625 L 2.984375 9.15625 L 2.984375 -20.796875 L 7.578125 -20.796875 L 8.40625 -18.078125 L 8.671875 -18.078125 C 9.984375 -20.148438 11.9375 -21.1875 14.53125 -21.1875 C 17.007812 -21.1875 18.9375 -20.253906 20.3125 -18.390625 C 21.6875 -16.523438 22.375 -13.867188 22.375 -10.421875 C 22.375 -7.003906 21.664062 -4.351562 20.25 -2.46875 C 18.832031 -0.59375 16.882812 0.34375 14.40625 0.34375 Z M 12.734375 -16.640625 C 11.335938 -16.640625 10.3125 -16.210938 9.65625 -15.359375 C 9 -14.515625 8.671875 -13.085938 8.671875 -11.078125 L 8.671875 -10.46875 C 8.671875 -8.25 9 -6.648438 9.65625 -5.671875 C 10.3125 -4.691406 11.351562 -4.203125 12.78125 -4.203125 C 15.320312 -4.203125 16.59375 -6.300781 16.59375 -10.5 C 16.59375 -14.59375 15.304688 -16.640625 12.734375 -16.640625 Z M 12.734375 -16.640625 "/></g></g></g><g fill="#f27141" fill-opacity="1"><g transform="translate(213.461083, 293.509843)"><g><path d="M 14.578125 -21.1875 C 15.421875 -21.1875 16.0625 -21.128906 16.5 -21.015625 L 16.0625 -15.71875 C 15.6875 -15.832031 15.132812 -15.890625 14.40625 -15.890625 C 12.5625 -15.890625 11.144531 -15.421875 10.15625 -14.484375 C 9.164062 -13.554688 8.671875 -12.257812 8.671875 -10.59375 L 8.671875 0 L 2.984375 0 L 2.984375 -20.796875 L 7.265625 -20.796875 L 8.09375 -17.296875 L 8.40625 -17.296875 C 9.050781 -18.460938 9.910156 -19.398438 10.984375 -20.109375 C 12.066406 -20.828125 13.265625 -21.1875 14.578125 -21.1875 Z M 14.578125 -21.1875 "/></g></g></g><g fill="#f27141" fill-opacity="1"><g transform="translate(235.653488, 293.509843)"><g><path d="M 7.484375 -10.421875 C 7.484375 -8.378906 7.828125 -6.832031 8.515625 -5.78125 C 9.203125 -4.726562 10.304688 -4.203125 11.828125 -4.203125 C 13.335938 -4.203125 14.421875 -4.710938 15.078125 -5.734375 C 15.734375 -6.753906 16.0625 -8.316406 16.0625 -10.421875 C 16.0625 -12.523438 15.722656 -14.078125 15.046875 -15.078125 C 14.378906 -16.085938 13.289062 -16.59375 11.78125 -16.59375 C 10.257812 -16.59375 9.160156 -16.085938 8.484375 -15.078125 C 7.816406 -14.078125 7.484375 -12.523438 7.484375 -10.421875 Z M 21.890625 -10.421875 C 21.890625 -6.972656 20.988281 -4.316406 19.1875 -2.453125 C 17.394531 -0.585938 14.910156 0.34375 11.734375 0.34375 C 10.210938 0.34375 8.835938 0.0976562 7.609375 -0.390625 C 6.390625 -0.890625 5.34375 -1.601562 4.46875 -2.53125 C 3.59375 -3.46875 2.910156 -4.597656 2.421875 -5.921875 C 1.941406 -7.253906 1.703125 -8.753906 1.703125 -10.421875 C 1.703125 -13.867188 2.578125 -16.523438 4.328125 -18.390625 C 6.085938 -20.253906 8.597656 -21.1875 11.859375 -21.1875 C 13.347656 -21.1875 14.710938 -20.929688 15.953125 -20.421875 C 17.191406 -19.910156 18.25 -19.1875 19.125 -18.25 C 20.007812 -17.320312 20.691406 -16.191406 21.171875 -14.859375 C 21.648438 -13.535156 21.890625 -12.054688 21.890625 -10.421875 Z M 21.890625 -10.421875 "/></g></g></g></svg>